# xmcd
# 
# Track frame offsets:
#	150
#	19260
#	38180
#
# Disc length: 836 seconds
#
# Revision: 1
# Processed by: cddbd v1.4PL0 Copyright (c) Steve Scherf et al.
# Submitted via: Audio-CD-Archiv 2.10.446
#
DISCID=1d034203
DTITLE=Mavis Staples - The Voice
DYEAR=1900
DGENRE=blues
TTITLE0=The Voice
TTITLE1=You Will Be Moved
TTITLE2=Come Home
EXTD=
EXTT0=
EXTT1=
EXTT2=
PLAYORDER=
